<svg width="1920" height="370" viewBox="0 0 1920 370" fill="none" xmlns="http://www.w3.org/2000/svg">
<path d="M854.852 370H-2L-1.88989 321.002H843.941L854.852 370Z" fill="#234C9C"/>
<!-- Background seguindo o desenho na parte inferior direita -->
<path d="M1067.07 147.38L1920 147.41V370H854.852L843.941 321.001C837.574 291.263 860.127 263.071 890.357 263.243L974.44 263.667C1004.79 263.849 1027.41 235.444 1020.76 205.523C1014.1 175.613 1036.72 147.218 1067.07 147.38Z" fill="#1e40af"/>
<path d="M854.852 370H-2L-2 321.002H843.941L854.852 370Z" fill="#234C9C;
"/>
<path d="M1920 97.9975V147.41L1067.07 147.38C1036.72 147.218 1014.1 175.613 1020.76 205.523C1027.41 235.444 1004.79 263.849 974.44 263.667L890.357 263.243C860.127 263.071 837.574 291.263 843.951 320.992L833.04 271.993C826.383 242.073 848.996 213.678 879.356 213.85L963.44 214.264C993.82 214.466 1016.44 185.93 1009.76 156.121C1003.42 127.948 1023.38 101.009 1050.89 98.2299C1050.89 98.2299 1050.89 98.2299 1050.91 98.2299C1052.62 98.0582 1054.34 97.9672 1056.07 97.9773H1919.99L1920 97.9975Z" fill="#234C9C"/>
<path d="M843.941 321.001H-2L-2 272.013H833.04L843.941 321.001Z" fill="white"/>
<path d="M1920 49.0083V98.4211L1056.16 98.3908C1025.81 98.2291 1003.19 126.624 1009.85 156.534C1016.5 186.455 993.88 214.86 963.53 214.678L879.446 214.253C849.216 214.081 826.664 242.274 833.04 272.003L822.129 223.004C815.472 193.084 838.085 164.689 868.445 164.861L952.529 165.275C982.909 165.477 1005.53 136.941 998.845 107.131C992.508 78.9591 1012.47 52.0195 1039.98 49.2407C1039.98 49.2407 1039.98 49.2407 1040 49.2407C1041.71 49.0689 1043.43 48.978 1045.16 48.9881H1919.99L1920 49.0083Z" fill="white"/>
<path d="M833.04 272.013H-2L-2 223.015H822.129L833.04 272.013Z" fill="#201438"/>
<path d="M1920 0.000462342V49.4133L1045.26 49.383C1014.91 49.2213 992.288 77.616 998.945 107.526C1005.6 137.447 982.979 165.852 952.629 165.67L868.545 165.245C838.315 165.074 815.762 193.266 822.139 222.995L811.228 173.996C804.571 144.076 827.184 115.681 857.544 115.853L941.628 116.267C972.008 116.469 994.63 87.9331 987.944 58.1237C981.607 29.9513 1001.57 3.01171 1029.07 0.232874C1029.07 0.232874 1029.07 0.232874 1029.09 0.232874C1030.81 0.0610916 1032.53 -0.0298523 1034.26 -0.0197474H1920L1920 0.000462342Z" fill="#201438"/>
</svg>
