<svg width="1920" height="299" viewBox="0 0 1920 279" fill="none" xmlns="http://www.w3.org/2000/svg">
<path d="M-6.5 878.5H1924.5V242.5L1270.5 240L1088 86H-1.5L-6.5 878.5Z" fill="#234C9C"/>
<path d="M-59 86.6435V130.323L1063.97 130.296C1090.8 130.154 1110.79 155.254 1104.91 181.694C1099.02 208.143 1119.02 233.252 1145.85 233.091L1220.18 232.716C1246.9 232.564 1266.84 257.486 1261.2 283.765L1270.85 240.451C1276.73 214.002 1256.74 188.902 1229.9 189.054L1155.58 189.42C1128.72 189.599 1108.72 164.374 1114.63 138.023C1120.23 113.119 1102.59 89.3054 1078.27 86.849C1078.27 86.849 1078.27 86.849 1078.26 86.849C1076.74 86.6971 1075.22 86.6167 1073.69 86.6257L-58.9912 86.6257L-59 86.6435Z" fill="#234C9C"/>
<path d="M1261.21 283.773H2008.96L2008.87 240.469H1270.85L1261.21 283.773Z" fill="white"/>
<path d="M-59 43.3428V87.0225L1073.61 86.9957C1100.44 86.8527 1120.44 111.953 1114.55 138.393C1108.67 164.842 1128.67 189.951 1155.5 189.79L1229.82 189.415C1256.55 189.263 1276.48 214.185 1270.85 240.464L1280.49 197.151C1286.38 170.702 1266.39 145.601 1239.55 145.753L1165.22 146.12C1138.37 146.298 1118.37 121.073 1124.28 94.7222C1129.88 69.8186 1112.24 46.0046 1087.92 43.5482C1087.92 43.5482 1087.92 43.5482 1087.9 43.5482C1086.39 43.3964 1084.87 43.316 1083.34 43.3249L-58.9912 43.3249L-59 43.3428Z" fill="white"/>
<path d="M1270.85 240.474H2008.94L2008.84 197.16H1280.49L1270.85 240.474Z" fill="#201438"/>
<path d="M-59 0.0185371V43.6982L1083.25 43.6714C1110.08 43.5285 1130.07 68.6287 1124.19 95.0688C1118.31 121.518 1138.3 146.627 1165.13 146.466L1239.46 146.091C1266.18 145.939 1286.12 170.861 1280.48 197.14L1290.13 153.826C1296.01 127.377 1276.02 102.277 1249.18 102.429L1174.86 102.795C1148 102.974 1128 77.7488 1133.91 51.398C1139.52 26.4943 1121.87 2.68041 1097.56 0.223984C1097.56 0.223984 1097.56 0.223984 1097.54 0.223984C1096.03 0.0721318 1094.5 -0.00826027 1092.97 0.000672184L-59 0.000672184L-59 0.0185371Z" fill="#201438"/>
</svg>
