<svg width="74" height="23" viewBox="0 0 74 23" fill="none" xmlns="http://www.w3.org/2000/svg">
<path d="M1.15169 16V5.51705H4.99066C5.73457 5.51705 6.35051 5.63989 6.83849 5.88559C7.32647 6.12787 7.69159 6.45717 7.93388 6.87348C8.17616 7.28639 8.2973 7.75218 8.2973 8.27087C8.2973 8.70766 8.21711 9.0762 8.05672 9.37649C7.89634 9.67337 7.68136 9.91224 7.41178 10.0931C7.14561 10.2705 6.85214 10.4002 6.53137 10.4821V10.5845C6.87944 10.6016 7.21897 10.7142 7.54998 10.9223C7.8844 11.1271 8.1608 11.4188 8.3792 11.7976C8.59759 12.1764 8.70679 12.6371 8.70679 13.1796C8.70679 13.7154 8.58053 14.1965 8.32801 14.6231C8.0789 15.0462 7.6933 15.3824 7.1712 15.6315C6.6491 15.8772 5.98197 16 5.16982 16H1.15169ZM2.73335 14.6436H5.01626C5.77381 14.6436 6.31639 14.4968 6.64398 14.2034C6.97157 13.9099 7.13537 13.5431 7.13537 13.1029C7.13537 12.7719 7.05177 12.4681 6.88456 12.1917C6.71735 11.9153 6.47848 11.6952 6.16795 11.5314C5.86083 11.3676 5.4957 11.2857 5.07256 11.2857H2.73335V14.6436ZM2.73335 10.0522H4.85246C5.20735 10.0522 5.52641 9.9839 5.80965 9.84741C6.09629 9.71091 6.32321 9.51981 6.49042 9.27412C6.66104 9.02501 6.74635 8.73155 6.74635 8.39372C6.74635 7.96034 6.5945 7.59692 6.2908 7.30345C5.98709 7.00998 5.5213 6.86324 4.89341 6.86324H2.73335V10.0522ZM11.9904 5.51705V16H10.4599V5.51705H11.9904ZM17.3611 16.1587C16.624 16.1587 15.9808 15.9898 15.4314 15.6519C14.882 15.3141 14.4554 14.8415 14.1517 14.2341C13.848 13.6267 13.6962 12.9169 13.6962 12.1047C13.6962 11.2892 13.848 10.576 14.1517 9.96513C14.4554 9.35431 14.882 8.87999 15.4314 8.54216C15.9808 8.20433 16.624 8.03541 17.3611 8.03541C18.0982 8.03541 18.7414 8.20433 19.2908 8.54216C19.8402 8.87999 20.2668 9.35431 20.5705 9.96513C20.8742 10.576 21.0261 11.2892 21.0261 12.1047C21.0261 12.9169 20.8742 13.6267 20.5705 14.2341C20.2668 14.8415 19.8402 15.3141 19.2908 15.6519C18.7414 15.9898 18.0982 16.1587 17.3611 16.1587ZM17.3662 14.8739C17.844 14.8739 18.2398 14.7476 18.5538 14.4951C18.8677 14.2426 19.0997 13.9065 19.2499 13.4868C19.4034 13.067 19.4802 12.6046 19.4802 12.0996C19.4802 11.598 19.4034 11.1373 19.2499 10.7176C19.0997 10.2944 18.8677 9.9549 18.5538 9.69897C18.2398 9.44303 17.844 9.31507 17.3662 9.31507C16.8851 9.31507 16.4858 9.44303 16.1685 9.69897C15.8545 9.9549 15.6208 10.2944 15.4672 10.7176C15.3171 11.1373 15.242 11.598 15.242 12.0996C15.242 12.6046 15.3171 13.067 15.4672 13.4868C15.6208 13.9065 15.8545 14.2426 16.1685 14.4951C16.4858 14.7476 16.8851 14.8739 17.3662 14.8739ZM26.0308 19.1121C25.4063 19.1121 24.8689 19.0302 24.4184 18.8664C23.9714 18.7026 23.6063 18.4859 23.323 18.2164C23.0398 17.9468 22.8282 17.6516 22.6883 17.3308L24.0038 16.7883C24.096 16.9384 24.2188 17.0971 24.3724 17.2643C24.5293 17.4349 24.7409 17.58 25.0071 17.6994C25.2766 17.8188 25.623 17.8785 26.0461 17.8785C26.6263 17.8785 27.1057 17.7369 27.4845 17.4537C27.8633 17.1739 28.0527 16.7268 28.0527 16.1126V14.5668H27.9554C27.8633 14.734 27.7302 14.92 27.5561 15.1247C27.3855 15.3295 27.1501 15.5069 26.8498 15.6571C26.5495 15.8072 26.1588 15.8823 25.6776 15.8823C25.0565 15.8823 24.4969 15.7372 23.9987 15.4472C23.5039 15.1537 23.1115 14.722 22.8214 14.1522C22.5348 13.5789 22.3914 12.8742 22.3914 12.0382C22.3914 11.2021 22.5331 10.4855 22.8163 9.88836C23.1029 9.29118 23.4954 8.83392 23.9936 8.51656C24.4918 8.1958 25.0565 8.03541 25.6878 8.03541C26.1758 8.03541 26.57 8.11731 26.8702 8.28111C27.1705 8.44149 27.4043 8.62917 27.5715 8.84415C27.7421 9.05914 27.8735 9.24853 27.9656 9.41232H28.0782V8.13778H29.578V16.174C29.578 16.8497 29.421 17.4042 29.1071 17.8376C28.7931 18.271 28.3683 18.5917 27.8326 18.7999C27.3002 19.008 26.6996 19.1121 26.0308 19.1121ZM26.0154 14.6129C26.4556 14.6129 26.8276 14.5105 27.1313 14.3057C27.4384 14.0976 27.6705 13.8007 27.8274 13.4151C27.9878 13.0261 28.068 12.5603 28.068 12.0177C28.068 11.4888 27.9895 11.023 27.8326 10.6203C27.6756 10.2177 27.4452 9.90371 27.1415 9.67849C26.8378 9.44986 26.4625 9.33554 26.0154 9.33554C25.5548 9.33554 25.1709 9.45498 24.8637 9.69385C24.5566 9.9293 24.3246 10.2501 24.1676 10.6561C24.0141 11.0622 23.9373 11.5161 23.9373 12.0177C23.9373 12.533 24.0158 12.9851 24.1727 13.3741C24.3297 13.7632 24.5617 14.0669 24.8689 14.2853C25.1794 14.5037 25.5616 14.6129 26.0154 14.6129ZM38.9617 16H35.5681V5.51705H39.0692C40.0964 5.51705 40.9785 5.72691 41.7156 6.14664C42.4526 6.56295 43.0174 7.16183 43.4098 7.94328C43.8057 8.72131 44.0036 9.6546 44.0036 10.7432C44.0036 11.8351 43.804 12.7736 43.4047 13.5584C43.0089 14.3433 42.4356 14.9473 41.6848 15.3704C40.9341 15.7901 40.0264 16 38.9617 16ZM37.1497 14.618H38.8747C39.6732 14.618 40.3369 14.4678 40.8659 14.1675C41.3948 13.8638 41.7906 13.4253 42.0534 12.852C42.3161 12.2753 42.4475 11.5724 42.4475 10.7432C42.4475 9.92077 42.3161 9.22293 42.0534 8.64965C41.794 8.07636 41.4067 7.64128 40.8915 7.3444C40.3762 7.04752 39.7364 6.89908 38.972 6.89908H37.1497V14.618ZM49.2361 16.1587C48.4615 16.1587 47.7944 15.9932 47.2347 15.6622C46.6785 15.3278 46.2485 14.8585 45.9448 14.2545C45.6445 13.6471 45.4944 12.9356 45.4944 12.1201C45.4944 11.3147 45.6445 10.605 45.9448 9.99073C46.2485 9.37649 46.6717 8.89705 47.2142 8.55239C47.7602 8.20774 48.3984 8.03541 49.1286 8.03541C49.5722 8.03541 50.0022 8.10878 50.4185 8.25551C50.8348 8.40225 51.2085 8.63258 51.5395 8.94653C51.8705 9.26047 52.1315 9.66825 52.3226 10.1699C52.5137 10.6681 52.6093 11.2738 52.6093 11.987V12.5296H46.3594V11.383H51.1095C51.1095 10.9803 51.0276 10.6237 50.8638 10.3132C50.7 9.99926 50.4697 9.75186 50.1728 9.571C49.8793 9.39014 49.5347 9.29971 49.1388 9.29971C48.7089 9.29971 48.3335 9.4055 48.0128 9.61707C47.6954 9.82523 47.4497 10.0982 47.2757 10.436C47.105 10.7705 47.0197 11.1339 47.0197 11.5263V12.4221C47.0197 12.9476 47.1119 13.3946 47.2961 13.7632C47.4838 14.1317 47.7449 14.4132 48.0793 14.6077C48.4137 14.7988 48.8044 14.8944 49.2515 14.8944C49.5415 14.8944 49.806 14.8534 50.0448 14.7715C50.2837 14.6862 50.4902 14.56 50.6642 14.3928C50.8382 14.2255 50.9713 14.0191 51.0635 13.7734L52.512 14.0344C52.396 14.461 52.1878 14.8347 51.8876 15.1554C51.5907 15.4728 51.217 15.7202 50.7666 15.8976C50.3195 16.0717 49.8094 16.1587 49.2361 16.1587ZM48.4376 7.08846L49.6354 4.72878H51.2477L49.6609 7.08846H48.4376ZM57.6191 16.1587C56.8582 16.1587 56.203 15.9864 55.6536 15.6417C55.1076 15.2936 54.6879 14.8142 54.3944 14.2034C54.1009 13.5925 53.9542 12.893 53.9542 12.1047C53.9542 11.3062 54.1043 10.6016 54.4046 9.99073C54.7049 9.37649 55.1281 8.89705 55.6741 8.55239C56.22 8.20774 56.8633 8.03541 57.6038 8.03541C58.201 8.03541 58.7333 8.14632 59.2008 8.36812C59.6683 8.58652 60.0454 8.89363 60.332 9.28948C60.6221 9.68532 60.7944 10.1477 60.849 10.6766H59.3595C59.2776 10.3081 59.0899 9.99073 58.7964 9.72456C58.5064 9.45839 58.1174 9.32531 57.6294 9.32531C57.2028 9.32531 56.8292 9.43792 56.5084 9.66314C56.191 9.88494 55.9436 10.2023 55.7662 10.6152C55.5888 11.0247 55.5 11.5093 55.5 12.0689C55.5 12.6422 55.587 13.137 55.7611 13.5533C55.9351 13.9696 56.1808 14.2921 56.4982 14.5207C56.8189 14.7493 57.196 14.8637 57.6294 14.8637C57.9194 14.8637 58.1822 14.8108 58.4176 14.705C58.6565 14.5958 58.8561 14.4405 59.0165 14.2392C59.1803 14.0379 59.2946 13.7956 59.3595 13.5123H60.849C60.7944 14.0208 60.6289 14.4746 60.3525 14.8739C60.0761 15.2732 59.7058 15.5871 59.2417 15.8157C58.7811 16.0444 58.2402 16.1587 57.6191 16.1587ZM62.4857 16V8.13778H64.0161V16H62.4857ZM63.2586 6.92467C62.9924 6.92467 62.7638 6.83595 62.5727 6.6585C62.385 6.47764 62.2912 6.26266 62.2912 6.01355C62.2912 5.76103 62.385 5.54605 62.5727 5.3686C62.7638 5.18775 62.9924 5.09732 63.2586 5.09732C63.5248 5.09732 63.7517 5.18775 63.9394 5.3686C64.1305 5.54605 64.226 5.76103 64.226 6.01355C64.226 6.26266 64.1305 6.47764 63.9394 6.6585C63.7517 6.83595 63.5248 6.92467 63.2586 6.92467ZM69.3869 16.1587C68.6498 16.1587 68.0065 15.9898 67.4571 15.6519C66.9077 15.3141 66.4812 14.8415 66.1775 14.2341C65.8738 13.6267 65.7219 12.9169 65.7219 12.1047C65.7219 11.2892 65.8738 10.576 66.1775 9.96513C66.4812 9.35431 66.9077 8.87999 67.4571 8.54216C68.0065 8.20433 68.6498 8.03541 69.3869 8.03541C70.124 8.03541 70.7672 8.20433 71.3166 8.54216C71.866 8.87999 72.2925 9.35431 72.5963 9.96513C72.9 10.576 73.0518 11.2892 73.0518 12.1047C73.0518 12.9169 72.9 13.6267 72.5963 14.2341C72.2925 14.8415 71.866 15.3141 71.3166 15.6519C70.7672 15.9898 70.124 16.1587 69.3869 16.1587ZM69.392 14.8739C69.8697 14.8739 70.2656 14.7476 70.5795 14.4951C70.8935 14.2426 71.1255 13.9065 71.2756 13.4868C71.4292 13.067 71.506 12.6046 71.506 12.0996C71.506 11.598 71.4292 11.1373 71.2756 10.7176C71.1255 10.2944 70.8935 9.9549 70.5795 9.69897C70.2656 9.44303 69.8697 9.31507 69.392 9.31507C68.9108 9.31507 68.5116 9.44303 68.1942 9.69897C67.8803 9.9549 67.6465 10.2944 67.493 10.7176C67.3428 11.1373 67.2678 11.598 67.2678 12.0996C67.2678 12.6046 67.3428 13.067 67.493 13.4868C67.6465 13.9065 67.8803 14.2426 68.1942 14.4951C68.5116 14.7476 68.9108 14.8739 69.392 14.8739Z" fill="white"/>
</svg>
