<svg width="8" height="5" viewBox="0 0 8 5" fill="none" xmlns="http://www.w3.org/2000/svg">
<path d="M0.234375 0.234375C0.390625 0.078125 0.579427 0 0.800781 0C1.02214 0 1.21094 0.078125 1.36719 0.234375L4 2.86719L6.63281 0.234375C6.78906 0.078125 6.97786 0 7.19922 0C7.42057 0 7.60938 0.078125 7.76562 0.234375C7.92188 0.390625 8 0.579427 8 0.800781C8 1.02214 7.92188 1.21094 7.76562 1.36719L4.5625 4.5625C4.40625 4.71875 4.21875 4.79688 4 4.79688C3.78125 4.79688 3.59375 4.71875 3.4375 4.5625L0.234375 1.36719C0.078125 1.21094 0 1.02214 0 0.800781C0 0.579427 0.078125 0.390625 0.234375 0.234375Z" fill="white"/>
</svg>
