<svg width="54" height="11" viewBox="0 0 54 11" fill="none" xmlns="http://www.w3.org/2000/svg">
<path d="M9.05487 3.55629H7.45605C7.39456 3.21466 7.28011 2.91403 7.11271 2.65439C6.94532 2.39476 6.74034 2.17441 6.49778 1.99334C6.25523 1.81228 5.98363 1.67563 5.683 1.58339C5.38578 1.49115 5.06978 1.44503 4.73498 1.44503C4.1303 1.44503 3.58882 1.59706 3.11054 1.90111C2.63568 2.20515 2.25989 2.65098 1.98317 3.23858C1.70986 3.82618 1.57321 4.5436 1.57321 5.39084C1.57321 6.24491 1.70986 6.96574 1.98317 7.55334C2.25989 8.14094 2.63738 8.58506 3.11566 8.88569C3.59394 9.18633 4.13201 9.33664 4.72986 9.33664C5.06124 9.33664 5.37553 9.29223 5.67275 9.20341C5.97338 9.11117 6.24498 8.97622 6.48753 8.79858C6.73009 8.62093 6.93507 8.404 7.10246 8.14778C7.27328 7.88814 7.39114 7.59092 7.45605 7.25613L9.05487 7.26125C8.96946 7.77711 8.80377 8.25197 8.5578 8.68584C8.31525 9.11629 8.00266 9.48867 7.62003 9.80296C7.24082 10.1138 6.80696 10.3547 6.31843 10.5255C5.8299 10.6963 5.29696 10.7817 4.71961 10.7817C3.81088 10.7817 3.00122 10.5665 2.29063 10.1361C1.58005 9.70218 1.01978 9.08213 0.609822 8.27589C0.203284 7.46964 1.56526e-05 6.50796 1.56526e-05 5.39084C1.56526e-05 4.2703 0.204993 3.30861 0.614946 2.50579C1.0249 1.69954 1.58517 1.0812 2.29576 0.650746C3.00634 0.216878 3.81429 -5.59403e-05 4.71961 -5.59403e-05C5.27646 -5.59403e-05 5.79574 0.0802268 6.27743 0.240792C6.76255 0.397941 7.19812 0.630248 7.58416 0.937714C7.9702 1.24176 8.28962 1.61414 8.54243 2.05484C8.79523 2.49212 8.96605 2.99261 9.05487 3.55629ZM14.1421 10.7971C13.4042 10.7971 12.7603 10.628 12.2102 10.2898C11.6602 9.95157 11.2332 9.47842 10.9291 8.87032C10.6251 8.26222 10.4731 7.55163 10.4731 6.73856C10.4731 5.92207 10.6251 5.20807 10.9291 4.59655C11.2332 3.98504 11.6602 3.51017 12.2102 3.17196C12.7603 2.83375 13.4042 2.66464 14.1421 2.66464C14.8801 2.66464 15.524 2.83375 16.074 3.17196C16.6241 3.51017 17.0511 3.98504 17.3552 4.59655C17.6592 5.20807 17.8112 5.92207 17.8112 6.73856C17.8112 7.55163 17.6592 8.26222 17.3552 8.87032C17.0511 9.47842 16.6241 9.95157 16.074 10.2898C15.524 10.628 14.8801 10.7971 14.1421 10.7971ZM14.1473 9.51087C14.6255 9.51087 15.0218 9.38447 15.3361 9.13166C15.6504 8.87886 15.8827 8.54236 16.0331 8.12215C16.1868 7.70195 16.2637 7.23904 16.2637 6.73344C16.2637 6.23124 16.1868 5.77004 16.0331 5.34984C15.8827 4.92622 15.6504 4.5863 15.3361 4.33008C15.0218 4.07386 14.6255 3.94575 14.1473 3.94575C13.6656 3.94575 13.2659 4.07386 12.9481 4.33008C12.6339 4.5863 12.3998 4.92622 12.2461 5.34984C12.0958 5.77004 12.0206 6.23124 12.0206 6.73344C12.0206 7.23904 12.0958 7.70195 12.2461 8.12215C12.3998 8.54236 12.6339 8.87886 12.9481 9.13166C13.2659 9.38447 13.6656 9.51087 14.1473 9.51087ZM21.0537 5.96477V10.6382H19.5215V2.76713H20.9922V4.04824H21.0896C21.2706 3.63145 21.5542 3.29666 21.9402 3.04385C22.3297 2.79105 22.8199 2.66464 23.4109 2.66464C23.9473 2.66464 24.417 2.77738 24.8202 3.00286C25.2233 3.22491 25.5359 3.55629 25.7579 3.99699C25.98 4.43769 26.091 4.98259 26.091 5.63168V10.6382H24.5588V5.81616C24.5588 5.24564 24.4102 4.79982 24.113 4.47869C23.8158 4.15414 23.4075 3.99187 22.8882 3.99187C22.533 3.99187 22.2169 4.06874 21.9402 4.22247C21.6669 4.3762 21.45 4.60168 21.2894 4.89889C21.1323 5.19269 21.0537 5.54799 21.0537 5.96477ZM31.8201 2.76713V3.99699H27.5207V2.76713H31.8201ZM28.6737 0.881345H30.2059V8.32713C30.2059 8.62435 30.2503 8.84811 30.3392 8.99843C30.428 9.14533 30.5424 9.24611 30.6825 9.30077C30.826 9.35201 30.9814 9.37764 31.1488 9.37764C31.2718 9.37764 31.3794 9.3691 31.4717 9.35201C31.5639 9.33493 31.6356 9.32127 31.6869 9.31102L31.9636 10.5768C31.8748 10.6109 31.7484 10.6451 31.5844 10.6792C31.4204 10.7168 31.2154 10.7373 30.9695 10.7407C30.5663 10.7476 30.1905 10.6758 29.8421 10.5255C29.4936 10.3752 29.2118 10.1429 28.9966 9.82859C28.7813 9.51429 28.6737 9.11971 28.6737 8.64484V0.881345ZM35.8056 10.8125C35.3069 10.8125 34.8559 10.7202 34.4528 10.5358C34.0497 10.3479 33.7302 10.0763 33.4945 9.72097C33.2622 9.36568 33.1461 8.9301 33.1461 8.41425C33.1461 7.97013 33.2315 7.60459 33.4023 7.31762C33.5731 7.03065 33.8037 6.80347 34.0941 6.63607C34.3845 6.46867 34.709 6.34227 35.0677 6.25686C35.4264 6.17146 35.792 6.10655 36.1643 6.06214C36.6358 6.00748 37.0184 5.96306 37.3122 5.9289C37.606 5.89132 37.8195 5.83154 37.9528 5.74955C38.086 5.66756 38.1526 5.53432 38.1526 5.34984V5.31397C38.1526 4.86644 38.0262 4.51968 37.7734 4.27371C37.524 4.02774 37.1516 3.90475 36.6563 3.90475C36.1404 3.90475 35.7339 4.0192 35.4367 4.24809C35.1429 4.47356 34.9396 4.72466 34.8269 5.00138L33.3869 4.67342C33.5577 4.19514 33.8071 3.8091 34.1351 3.5153C34.4665 3.21808 34.8474 3.00286 35.2778 2.86962C35.7083 2.73297 36.1609 2.66464 36.6358 2.66464C36.9501 2.66464 37.2832 2.70222 37.6351 2.77738C37.9903 2.84912 38.3217 2.98236 38.6292 3.17709C38.9401 3.37181 39.1946 3.65024 39.3927 4.01237C39.5909 4.37108 39.6899 4.8374 39.6899 5.41133V10.6382H38.1936V9.56212H38.1321C38.0331 9.76026 37.8844 9.95499 37.6863 10.1463C37.4882 10.3376 37.2336 10.4965 36.9228 10.6229C36.6119 10.7493 36.2395 10.8125 35.8056 10.8125ZM36.1387 9.58261C36.5623 9.58261 36.9245 9.49891 37.2251 9.33152C37.5291 9.16412 37.7597 8.94548 37.9169 8.67559C38.0775 8.40229 38.1577 8.1102 38.1577 7.79932V6.78468C38.1031 6.83934 37.9972 6.89058 37.84 6.93841C37.6863 6.98282 37.5104 7.02211 37.3122 7.05627C37.1141 7.08702 36.9211 7.11606 36.7332 7.14339C36.5453 7.1673 36.3881 7.1878 36.2617 7.20488C35.9645 7.24246 35.6929 7.30566 35.4469 7.39449C35.2044 7.48331 35.0096 7.61142 34.8627 7.77882C34.7193 7.9428 34.6475 8.16144 34.6475 8.43474C34.6475 8.81395 34.7876 9.10092 35.0677 9.29565C35.3479 9.48696 35.7049 9.58261 36.1387 9.58261ZM45.405 2.76713V3.99699H41.1056V2.76713H45.405ZM42.2586 0.881345H43.7908V8.32713C43.7908 8.62435 43.8352 8.84811 43.924 8.99843C44.0128 9.14533 44.1273 9.24611 44.2673 9.30077C44.4108 9.35201 44.5663 9.37764 44.7337 9.37764C44.8566 9.37764 44.9643 9.3691 45.0565 9.35201C45.1487 9.33493 45.2205 9.32127 45.2717 9.31102L45.5484 10.5768C45.4596 10.6109 45.3332 10.6451 45.1692 10.6792C45.0053 10.7168 44.8003 10.7373 44.5543 10.7407C44.1512 10.7476 43.7754 10.6758 43.4269 10.5255C43.0785 10.3752 42.7966 10.1429 42.5814 9.82859C42.3662 9.51429 42.2586 9.11971 42.2586 8.64484V0.881345ZM50.3308 10.7971C49.5929 10.7971 48.9489 10.628 48.3989 10.2898C47.8489 9.95157 47.4218 9.47842 47.1178 8.87032C46.8137 8.26222 46.6617 7.55163 46.6617 6.73856C46.6617 5.92207 46.8137 5.20807 47.1178 4.59655C47.4218 3.98504 47.8489 3.51017 48.3989 3.17196C48.9489 2.83375 49.5929 2.66464 50.3308 2.66464C51.0687 2.66464 51.7127 2.83375 52.2627 3.17196C52.8127 3.51017 53.2398 3.98504 53.5438 4.59655C53.8479 5.20807 53.9999 5.92207 53.9999 6.73856C53.9999 7.55163 53.8479 8.26222 53.5438 8.87032C53.2398 9.47842 52.8127 9.95157 52.2627 10.2898C51.7127 10.628 51.0687 10.7971 50.3308 10.7971ZM50.3359 9.51087C50.8142 9.51087 51.2105 9.38447 51.5248 9.13166C51.8391 8.87886 52.0714 8.54236 52.2217 8.12215C52.3755 7.70195 52.4523 7.23904 52.4523 6.73344C52.4523 6.23124 52.3755 5.77004 52.2217 5.34984C52.0714 4.92622 51.8391 4.5863 51.5248 4.33008C51.2105 4.07386 50.8142 3.94575 50.3359 3.94575C49.8542 3.94575 49.4545 4.07386 49.1368 4.33008C48.8225 4.5863 48.5885 4.92622 48.4348 5.34984C48.2845 5.77004 48.2093 6.23124 48.2093 6.73344C48.2093 7.23904 48.2845 7.70195 48.4348 8.12215C48.5885 8.54236 48.8225 8.87886 49.1368 9.13166C49.4545 9.38447 49.8542 9.51087 50.3359 9.51087Z" fill="white"/>
</svg>
