<svg width="8" height="5" viewBox="0 0 8 5" fill="none" xmlns="http://www.w3.org/2000/svg">
<path d="M0.223941 0.2443C0.373236 0.0814332 0.553633 0 0.765133 0C0.976633 0 1.15703 0.0814332 1.30632 0.2443L3.82193 2.9886L6.33754 0.2443C6.48683 0.0814332 6.66723 0 6.87873 0C7.09023 0 7.27063 0.0814332 7.41992 0.2443C7.56922 0.407166 7.64387 0.603963 7.64387 0.834691C7.64387 1.06542 7.56922 1.26221 7.41992 1.42508L4.35939 4.7557C4.2101 4.91857 4.03094 5 3.82193 5C3.61292 5 3.43377 4.91857 3.28447 4.7557L0.223941 1.42508C0.0746471 1.26221 0 1.06542 0 0.834691C0 0.603963 0.0746471 0.407166 0.223941 0.2443Z" fill="white"/>
</svg>
